<?xml version="1.0" encoding="UTF-8" standalone="no"?>
<svg
   id="svg263402"
   viewBox="0 0 638 116"
   height="116"
   width="638"
   version="1.1"
   sodipodi:docname="Recovered logo.svg"
   inkscape:version="1.4 (86a8ad7, 2024-10-11)"
   xmlns:inkscape="http://www.inkscape.org/namespaces/inkscape"
   xmlns:sodipodi="http://sodipodi.sourceforge.net/DTD/sodipodi-0.dtd"
   xmlns="http://www.w3.org/2000/svg"
   xmlns:svg="http://www.w3.org/2000/svg"
   xmlns:rdf="http://www.w3.org/1999/02/22-rdf-syntax-ns#"
   xmlns:cc="http://creativecommons.org/ns#"
   xmlns:dc="http://purl.org/dc/elements/1.1/">
  <sodipodi:namedview
     id="namedview18"
     pagecolor="#ffffff"
     bordercolor="#000000"
     borderopacity="0.25"
     inkscape:showpageshadow="2"
     inkscape:pageopacity="0.0"
     inkscape:pagecheckerboard="0"
     inkscape:deskcolor="#d1d1d1"
     showgrid="false"
     inkscape:zoom="2.08"
     inkscape:cx="586.77885"
     inkscape:cy="137.25962"
     inkscape:window-width="1920"
     inkscape:window-height="1009"
     inkscape:window-x="-8"
     inkscape:window-y="-8"
     inkscape:window-maximized="1"
     inkscape:current-layer="logo-group" />
  <metadata
     id="metadata263408">
    <rdf:rdf>
      <cc:work
         rdf:about="">
        <dc:format>image/svg+xml</dc:format>
        <dc:type
           rdf:resource="http://purl.org/dc/dcmitype/StillImage" />
      </cc:work>
    </rdf:rdf>
  </metadata>
  <defs
     id="defs263406" />
  <linearGradient
     spreadMethod="pad"
     y2="0.30000001"
     x2="-0.1"
     y1="1.2"
     x1="0.30000001"
     id="3d_gradient2-logo-525171ac-831e-420f-9939-48bfd52bb3b8">
    <stop
       id="stop263383"
       stop-opacity="1"
       stop-color="#ffffff"
       offset="0%" />
    <stop
       id="stop263385"
       stop-opacity="1"
       stop-color="#000000"
       offset="100%" />
  </linearGradient>
  <linearGradient
     gradientTransform="rotate(-30)"
     spreadMethod="pad"
     y2="0.30000001"
     x2="-0.1"
     y1="1.2"
     x1="0.30000001"
     id="3d_gradient3-logo-525171ac-831e-420f-9939-48bfd52bb3b8">
    <stop
       id="stop263388"
       stop-opacity="1"
       stop-color="#ffffff"
       offset="0%" />
    <stop
       id="stop263390"
       stop-opacity="1"
       stop-color="#cccccc"
       offset="50%" />
    <stop
       id="stop263392"
       stop-opacity="1"
       stop-color="#000000"
       offset="100%" />
  </linearGradient>
  <g
     id="logo-group"
     transform="translate(18.822,58.848648)">
    <g
       id="logo-center"
       transform="translate(-97.448582,-335.9208)">
      <g
         id="slogan"
         style="font-style:normal;font-weight:400;font-size:32px;line-height:1;font-family:Arvo;font-variant-ligatures:none;text-align:center;text-anchor:middle"
         transform="translate(-44.413666,-45.759535)">
        <path
           id="path263410"
           style="font-style:normal;font-weight:400;font-size:32px;line-height:1;font-family:Arvo;font-variant-ligatures:none;text-align:center;text-anchor:middle"
           d="m 330.21875,-7.71875 q 0,0.6875 0.0937,1.265625 0.10937,0.5625 0.29687,1.078125 0.57813,1.5625 1.84375,2.359375 1.28125,0.78125 2.89063,0.78125 1.26562,0 2.45312,-0.34375 Q 339,-2.9375 340.3125,-3.6875 l 1.17187,1.984375 q -1.59375,1.09375 -3.20312,1.625 -1.60938,0.53125 -3.34375,0.53125 -1.64063,0 -3.04688,-0.546875 -1.39062,-0.546875 -2.40625,-1.625 -1,-1.078125 -1.57812,-2.6875 -0.5625,-1.609375 -0.5625,-3.75 0,-1.734375 0.48437,-3.265625 0.48438,-1.546875 1.4375,-2.6875 0.96875,-1.15625 2.39063,-1.828125 1.42187,-0.671875 3.3125,-0.671875 1.82812,0 3.04687,0.5625 1.23438,0.546875 2,1.46875 0.78125,0.90625 1.17188,2.078125 0.40625,1.171875 0.5625,2.390625 0.0781,0.59375 0.0937,1.203125 0.0312,0.609375 0.0312,1.1875 z m 4.54687,-6.453125 q -1.01562,0 -1.78125,0.296875 -0.75,0.28125 -1.28125,0.828125 -0.53125,0.53125 -0.85937,1.3125 -0.3125,0.78125 -0.46875,1.75 h 8.39062 q -0.0625,-0.90625 -0.29687,-1.671875 -0.21875,-0.765625 -0.6875,-1.328125 -0.46875,-0.5625 -1.20313,-0.875 -0.73437,-0.3125 -1.8125,-0.3125 z"
           stroke-width="0"
           stroke-linejoin="miter"
           stroke-miterlimit="2"
           fill="#0f1c2f"
           stroke="#0f1c2f"
           transform="matrix(0.75,0,0,0.75,120.95451,429.06174)" />
        <path
           id="path263412"
           style="font-style:normal;font-weight:400;font-size:32px;line-height:1;font-family:Arvo;font-variant-ligatures:none;text-align:center;text-anchor:middle"
           d="M 345.84375,-16.1875 H 351 v 1.890625 h 0.0312 q 0.53125,-0.453125 1.10937,-0.84375 0.59375,-0.40625 1.23438,-0.703125 0.64062,-0.296875 1.32812,-0.46875 0.70313,-0.171875 1.45313,-0.171875 1.75,0 3.01562,0.65625 1.26563,0.640625 1.95313,2.015625 0.59375,-0.53125 1.25,-1.015625 0.65625,-0.5 1.35937,-0.859375 0.71875,-0.359375 1.5,-0.578125 0.78125,-0.21875 1.625,-0.21875 1.3125,0 2.35938,0.359375 1.04687,0.359375 1.78125,1.09375 0.73437,0.734375 1.10937,1.890625 Q 372.5,-12 372.5,-10.4375 v 7.75 h 2.25 V 0 h -7.5625 v -2.6875 h 2.28125 v -7.390625 q 0,-1.859375 -0.9375,-2.8125 -0.9375,-0.96875 -2.70313,-0.96875 -1.04687,0 -2.14062,0.5 -1.09375,0.5 -1.875,1.265625 v 9.40625 h 2.23437 V 0 H 356.5 v -2.6875 h 2.28125 v -7.390625 q 0,-1.859375 -0.95313,-2.8125 -0.9375,-0.96875 -2.70312,-0.96875 -1.01563,0 -2.04688,0.484375 -1.03125,0.484375 -1.95312,1.203125 V -2.6875 h 2.28125 V 0 h -7.5625 v -2.6875 h 2.25 V -13.5 h -2.25 z"
           stroke-width="0"
           stroke-linejoin="miter"
           stroke-miterlimit="2"
           fill="#0f1c2f"
           stroke="#0f1c2f"
           transform="matrix(0.75,0,0,0.75,120.95451,429.06174)" />
        <path
           id="path263414"
           style="font-style:normal;font-weight:400;font-size:32px;line-height:1;font-family:Arvo;font-variant-ligatures:none;text-align:center;text-anchor:middle"
           d="m 377.26562,-16.1875 h 5.15625 v 1.34375 q 1.03125,-0.796875 2.25,-1.265625 1.21875,-0.46875 2.51563,-0.46875 1.59375,0 2.92187,0.59375 1.32813,0.59375 2.28125,1.671875 0.96875,1.078125 1.5,2.59375 0.53125,1.5 0.53125,3.328125 0,1.953125 -0.59375,3.5625 -0.59375,1.609375 -1.65625,2.765625 -1.04687,1.140625 -2.5,1.78125 -1.45312,0.640625 -3.1875,0.640625 -1.23437,0 -2.20312,-0.265625 -0.95313,-0.25 -1.82813,-0.65625 v 5.234375 h 2.53125 v 2.6875 h -7.6875 v -2.6875 h 2.21875 V -13.5 h -2.25 z m 9.15625,2.171875 q -1.125,0 -2.17187,0.453125 -1.03125,0.453125 -1.79688,1.25 v 8.765625 q 0.51563,0.53125 1.46875,0.953125 0.96875,0.421875 2.40625,0.421875 1,0 1.92188,-0.390625 0.92187,-0.390625 1.625,-1.15625 0.70312,-0.78125 1.125,-1.921875 0.42187,-1.140625 0.42187,-2.640625 0,-1.375 -0.40625,-2.4375 -0.39062,-1.0625 -1.07812,-1.796875 -0.67188,-0.734375 -1.57813,-1.109375 -0.90625,-0.390625 -1.9375,-0.390625 z"
           stroke-width="0"
           stroke-linejoin="miter"
           stroke-miterlimit="2"
           fill="#0f1c2f"
           stroke="#0f1c2f"
           transform="matrix(0.75,0,0,0.75,120.95451,429.06174)" />
        <path
           id="path263416"
           style="font-style:normal;font-weight:400;font-size:32px;line-height:1;font-family:Arvo;font-variant-ligatures:none;text-align:center;text-anchor:middle"
           d="m 397.1875,-8.09375 q 0.0156,-1.921875 0.60937,-3.5 0.60938,-1.578125 1.6875,-2.703125 1.07813,-1.140625 2.5625,-1.75 1.48438,-0.609375 3.26563,-0.609375 1.79687,0 3.28125,0.609375 1.5,0.609375 2.5625,1.734375 1.0625,1.109375 1.65625,2.6875 0.59375,1.578125 0.59375,3.5 0,1.890625 -0.59375,3.484375 -0.59375,1.578125 -1.65625,2.71875 -1.0625,1.140625 -2.5625,1.78125 -1.48438,0.625 -3.28125,0.625 -1.82813,0 -3.3125,-0.625 -1.48438,-0.625 -2.54688,-1.75 -1.0625,-1.140625 -1.65625,-2.71875 -0.59375,-1.578125 -0.60937,-3.484375 z m 3.07812,0 q 0,1.390625 0.39063,2.515625 0.40625,1.125 1.09375,1.921875 0.70312,0.78125 1.60937,1.21875 0.92188,0.421875 1.95313,0.421875 1.07812,0 2,-0.421875 0.9375,-0.421875 1.625,-1.203125 0.6875,-0.796875 1.07812,-1.921875 0.39063,-1.125 0.39063,-2.53125 0,-1.46875 -0.39063,-2.609375 -0.39062,-1.140625 -1.07812,-1.90625 -0.67188,-0.765625 -1.60938,-1.15625 -0.9375,-0.390625 -2.01562,-0.390625 -1.03125,0 -1.95313,0.390625 -0.90625,0.390625 -1.60937,1.15625 -0.6875,0.765625 -1.09375,1.90625 -0.39063,1.140625 -0.39063,2.609375 z"
           stroke-width="0"
           stroke-linejoin="miter"
           stroke-miterlimit="2"
           fill="#0f1c2f"
           stroke="#0f1c2f"
           transform="matrix(0.75,0,0,0.75,120.95451,429.06174)" />
        <path
           id="path263418"
           style="font-style:normal;font-weight:400;font-size:32px;line-height:1;font-family:Arvo;font-variant-ligatures:none;text-align:center;text-anchor:middle"
           d="m 415.28125,-16.1875 h 5.125 V -13.5 h -0.75 l 2.82812,10.328125 3.875,-13.015625 h 2.4375 L 432.5,-3.203125 435.45312,-13.5 h -0.9375 v -2.6875 h 5.125 V -13.5 H 438.25 L 433.8125,0.25 H 431.125 L 427.45312,-12.671875 423.79687,0.25 h -2.71875 l -4.40625,-13.75 h -1.39062 z"
           stroke-width="0"
           stroke-linejoin="miter"
           stroke-miterlimit="2"
           fill="#0f1c2f"
           stroke="#0f1c2f"
           transform="matrix(0.75,0,0,0.75,120.95451,429.06174)" />
        <path
           id="path263420"
           style="font-style:normal;font-weight:400;font-size:32px;line-height:1;font-family:Arvo;font-variant-ligatures:none;text-align:center;text-anchor:middle"
           d="m 444.90625,-7.71875 q 0,0.6875 0.0937,1.265625 0.10937,0.5625 0.29687,1.078125 0.57813,1.5625 1.84375,2.359375 1.28125,0.78125 2.89063,0.78125 1.26562,0 2.45312,-0.34375 Q 453.6875,-2.9375 455,-3.6875 l 1.17187,1.984375 q -1.59375,1.09375 -3.20312,1.625 -1.60938,0.53125 -3.34375,0.53125 -1.64063,0 -3.04688,-0.546875 -1.39062,-0.546875 -2.40625,-1.625 -1,-1.078125 -1.57812,-2.6875 -0.5625,-1.609375 -0.5625,-3.75 0,-1.734375 0.48437,-3.265625 0.48438,-1.546875 1.4375,-2.6875 0.96875,-1.15625 2.39063,-1.828125 1.42187,-0.671875 3.3125,-0.671875 1.82812,0 3.04687,0.5625 1.23438,0.546875 2,1.46875 0.78125,0.90625 1.17188,2.078125 0.40625,1.171875 0.5625,2.390625 0.0781,0.59375 0.0937,1.203125 0.0312,0.609375 0.0312,1.1875 z m 4.54687,-6.453125 q -1.01562,0 -1.78125,0.296875 -0.75,0.28125 -1.28125,0.828125 -0.53125,0.53125 -0.85937,1.3125 -0.3125,0.78125 -0.46875,1.75 h 8.39062 q -0.0625,-0.90625 -0.29687,-1.671875 -0.21875,-0.765625 -0.6875,-1.328125 -0.46875,-0.5625 -1.20313,-0.875 -0.73437,-0.3125 -1.8125,-0.3125 z"
           stroke-width="0"
           stroke-linejoin="miter"
           stroke-miterlimit="2"
           fill="#0f1c2f"
           stroke="#0f1c2f"
           transform="matrix(0.75,0,0,0.75,120.95451,429.06174)" />
        <path
           id="path263422"
           style="font-style:normal;font-weight:400;font-size:32px;line-height:1;font-family:Arvo;font-variant-ligatures:none;text-align:center;text-anchor:middle"
           d="m 472.17187,-12.765625 h -2.96875 v -1 q -0.51562,0 -1.0625,0.203125 -0.53125,0.1875 -1,0.59375 -0.46875,0.390625 -0.82812,1.015625 -0.34375,0.609375 -0.5,1.453125 v 7.8125 h 2.75 V 0 h -8.03125 v -2.6875 h 2.23437 l 0.0156,-10.8125 h -2.25 v -2.6875 h 5.17187 v 2.234375 q 0.28125,-0.5 0.625,-0.921875 0.35938,-0.4375 0.78125,-0.75 0.4375,-0.328125 0.95313,-0.5 0.53125,-0.1875 1.14062,-0.1875 0.8125,0 1.53125,0 0.71875,0 1.4375,0.03125 z"
           stroke-width="0"
           stroke-linejoin="miter"
           stroke-miterlimit="2"
           fill="#0f1c2f"
           stroke="#0f1c2f"
           transform="matrix(0.75,0,0,0.75,120.95451,429.06174)" />
        <path
           id="path263424"
           style="font-style:normal;font-weight:400;font-size:32px;line-height:1;font-family:Arvo;font-variant-ligatures:none;text-align:center;text-anchor:middle"
           d="m 478.28125,-7.71875 q 0,0.6875 0.0937,1.265625 0.10937,0.5625 0.29687,1.078125 0.57813,1.5625 1.84375,2.359375 1.28125,0.78125 2.89063,0.78125 1.26562,0 2.45312,-0.34375 Q 487.0625,-2.9375 488.375,-3.6875 l 1.17187,1.984375 q -1.59375,1.09375 -3.20312,1.625 -1.60938,0.53125 -3.34375,0.53125 -1.64063,0 -3.04688,-0.546875 -1.39062,-0.546875 -2.40625,-1.625 -1,-1.078125 -1.57812,-2.6875 -0.5625,-1.609375 -0.5625,-3.75 0,-1.734375 0.48437,-3.265625 0.48438,-1.546875 1.4375,-2.6875 0.96875,-1.15625 2.39063,-1.828125 1.42187,-0.671875 3.3125,-0.671875 1.82812,0 3.04687,0.5625 1.23438,0.546875 2,1.46875 0.78125,0.90625 1.17188,2.078125 0.40625,1.171875 0.5625,2.390625 0.0781,0.59375 0.0937,1.203125 0.0312,0.609375 0.0312,1.1875 z m 4.54687,-6.453125 q -1.01562,0 -1.78125,0.296875 -0.75,0.28125 -1.28125,0.828125 -0.53125,0.53125 -0.85937,1.3125 -0.3125,0.78125 -0.46875,1.75 h 8.39062 q -0.0625,-0.90625 -0.29687,-1.671875 -0.21875,-0.765625 -0.6875,-1.328125 -0.46875,-0.5625 -1.20313,-0.875 -0.73437,-0.3125 -1.8125,-0.3125 z"
           stroke-width="0"
           stroke-linejoin="miter"
           stroke-miterlimit="2"
           fill="#0f1c2f"
           stroke="#0f1c2f"
           transform="matrix(0.75,0,0,0.75,120.95451,429.06174)" />
        <path
           id="path263426"
           style="font-style:normal;font-weight:400;font-size:32px;line-height:1;font-family:Arvo;font-variant-ligatures:none;text-align:center;text-anchor:middle"
           d="m 503.45312,-24.3125 h 5.10938 v 21.625 h 2.375 V 0 h -5.28125 v -1.328125 q -0.78125,0.796875 -1.8125,1.25 -1.03125,0.4375 -2.34375,0.4375 -1.64063,0 -3.0625,-0.5625 -1.40625,-0.578125 -2.45313,-1.671875 -1.03125,-1.109375 -1.625,-2.703125 -0.57812,-1.609375 -0.57812,-3.671875 0,-1.875 0.5625,-3.40625 0.5625,-1.546875 1.59375,-2.625 1.03125,-1.09375 2.48437,-1.6875 1.45313,-0.609375 3.23438,-0.609375 1.17187,0 2.14062,0.265625 0.96875,0.25 1.85938,0.890625 V -21.625 h -2.20313 z M 501.875,-2.171875 q 1.29687,0 2.17187,-0.375 0.875,-0.390625 1.60938,-1.15625 v -9.0625 q -0.78125,-0.65625 -1.79688,-0.953125 -1.01562,-0.296875 -2.07812,-0.296875 -1.03125,0 -1.9375,0.390625 -0.90625,0.375 -1.59375,1.109375 -0.67188,0.734375 -1.0625,1.796875 -0.39063,1.0625 -0.39063,2.4375 0,1.5 0.375,2.640625 0.375,1.140625 1.04688,1.921875 0.67187,0.765625 1.60937,1.15625 0.9375,0.390625 2.04688,0.390625 z"
           stroke-width="0"
           stroke-linejoin="miter"
           stroke-miterlimit="2"
           fill="#0f1c2f"
           stroke="#0f1c2f"
           transform="matrix(0.75,0,0,0.75,120.95451,429.06174)" />
        <path
           id="path263430"
           style="font-style:normal;font-weight:400;font-size:32px;line-height:1;font-family:Arvo;font-variant-ligatures:none;text-align:center;text-anchor:middle"
           d="m 520.04687,-24.3125 h 5.25 v 9.46875 q 1.03125,-0.796875 2.25,-1.265625 1.21875,-0.46875 2.51563,-0.46875 1.59375,0 2.92187,0.59375 1.32813,0.59375 2.28125,1.671875 0.96875,1.078125 1.5,2.59375 0.53125,1.5 0.53125,3.328125 0,1.953125 -0.59375,3.546875 -0.59375,1.578125 -1.65625,2.71875 -1.04687,1.140625 -2.5,1.765625 Q 531.09375,0.25 529.35937,0.25 q -1.20312,0 -2.26562,-0.34375 -1.04688,-0.359375 -1.79688,-0.921875 V 0 h -2.90625 v -21.625 h -2.34375 z m 9.25,10.296875 q -1.14062,0 -2.1875,0.46875 -1.04687,0.46875 -1.8125,1.265625 v 8.703125 q 0.5,0.515625 1.46875,0.921875 0.96875,0.390625 2.4375,0.390625 1,0 1.92188,-0.375 0.92187,-0.375 1.625,-1.125 0.70312,-0.765625 1.125,-1.890625 0.42187,-1.125 0.42187,-2.625 0,-1.375 -0.40625,-2.4375 -0.39062,-1.0625 -1.07812,-1.796875 -0.67188,-0.734375 -1.57813,-1.109375 -0.90625,-0.390625 -1.9375,-0.390625 z"
           stroke-width="0"
           stroke-linejoin="miter"
           stroke-miterlimit="2"
           fill="#0f1c2f"
           stroke="#0f1c2f"
           transform="matrix(0.75,0,0,0.75,120.95451,429.06174)" />
        <path
           id="path263432"
           style="font-style:normal;font-weight:400;font-size:32px;line-height:1;font-family:Arvo;font-variant-ligatures:none;text-align:center;text-anchor:middle"
           d="m 539.20312,-16.1875 h 6.14063 V -13.5 h -1.92188 L 547.21875,-3.171875 551.1875,-13.5 h -1.90625 v -2.6875 h 6.14062 V -13.5 H 553.75 l -7.20313,18.171875 h 2.21875 v 2.6875 h -6.53125 v -2.6875 h 1.96875 L 545.92187,0.21875 540.51562,-13.5 h -1.3125 z"
           stroke-width="0"
           stroke-linejoin="miter"
           stroke-miterlimit="2"
           fill="#0f1c2f"
           stroke="#0f1c2f"
           transform="matrix(0.75,0,0,0.75,120.95451,429.06174)" />
        <path
           id="path263436"
           style="font-style:normal;font-weight:400;font-size:32px;line-height:1;font-family:Arvo;font-variant-ligatures:none;text-align:center;text-anchor:middle"
           d="m 576.57812,0.46875 q -2.45312,0 -4.48437,-0.90625 -2.03125,-0.921875 -3.625,-2.609375 -1.59375,-1.6875 -2.42188,-4 -0.82812,-2.3125 -0.82812,-4.796875 0,-2.5625 0.82812,-4.8125 0.84375,-2.25 2.34375,-3.90625 1.51563,-1.671875 3.59375,-2.625 2.09375,-0.96875 4.59375,-0.96875 2.51563,0 4.60938,0.96875 2.09375,0.953125 3.59375,2.625 1.5,1.65625 2.32812,3.90625 0.82813,2.25 0.82813,4.8125 0,2.5625 -0.84375,4.8125 -0.82813,2.234375 -2.34375,3.90625 -1.5,1.671875 -3.59375,2.640625 -2.07813,0.953125 -4.57813,0.953125 z m 0,-2.90625 q 1.85938,0 3.35938,-0.765625 1.51562,-0.765625 2.57812,-2.046875 1.0625,-1.296875 1.64063,-3 0.57812,-1.703125 0.57812,-3.59375 0,-1.9375 -0.64062,-3.734375 -0.625,-1.8125 -1.76563,-3.0625 -1.125,-1.25 -2.625,-1.921875 -1.5,-0.6875 -3.125,-0.6875 -1.85937,0 -3.375,0.765625 -1.51562,0.765625 -2.57812,2.0625 -1.0625,1.28125 -1.64063,3 -0.57812,1.703125 -0.57812,3.578125 0,2.1875 0.64062,3.90625 0.64063,1.703125 1.6875,2.84375 1.0625,1.125 2.51563,1.890625 1.46875,0.765625 3.32812,0.765625 z"
           stroke-width="0"
           stroke-linejoin="miter"
           stroke-miterlimit="2"
           fill="#0f1c2f"
           stroke="#0f1c2f"
           transform="matrix(0.75,0,0,0.75,120.95451,429.06174)" />
        <path
           id="path263438"
           style="font-style:normal;font-weight:400;font-size:32px;line-height:1;font-family:Arvo;font-variant-ligatures:none;text-align:center;text-anchor:middle"
           d="m 591.26562,-23.6875 h 9.57813 q 1.59375,0 2.92187,0.421875 1.34375,0.40625 2.3125,1.21875 0.98438,0.796875 1.51563,2 0.54687,1.203125 0.54687,2.765625 0,1.296875 -0.53125,2.453125 -0.53125,1.140625 -1.5,2 -0.96875,0.859375 -2.32812,1.359375 -1.34375,0.5 -3,0.5 h -4.20313 v 8.28125 h 2.375 V 0 h -7.6875 v -2.6875 h 2.25 v -18.296875 h -2.25 z m 5.3125,2.703125 v 7.453125 h 4.26563 q 0.89062,0 1.625,-0.234375 0.75,-0.25 1.28125,-0.71875 0.54687,-0.46875 0.84375,-1.171875 0.3125,-0.703125 0.3125,-1.625 0,-1.75 -1.0625,-2.71875 -1.0625,-0.984375 -3.39063,-0.984375 z"
           stroke-width="0"
           stroke-linejoin="miter"
           stroke-miterlimit="2"
           fill="#0f1c2f"
           stroke="#0f1c2f"
           transform="matrix(0.75,0,0,0.75,120.95451,429.06174)" />
        <path
           id="path263440"
           style="font-style:normal;font-weight:400;font-size:32px;line-height:1;font-family:Arvo;font-variant-ligatures:none;text-align:center;text-anchor:middle"
           d="M 611.14062,-23.6875 H 621 q 1.57812,0 2.90625,0.421875 1.34375,0.40625 2.3125,1.21875 0.98437,0.796875 1.53125,2 0.54687,1.203125 0.54687,2.765625 0,0.890625 -0.32812,1.765625 -0.3125,0.859375 -0.89063,1.609375 -0.5625,0.734375 -1.34375,1.3125 -0.78125,0.578125 -1.70312,0.890625 0.39062,0.171875 0.78125,0.5 0.40625,0.3125 0.75,0.78125 0.35937,0.453125 0.64062,1.046875 0.29688,0.578125 0.46875,1.25 l 1.3125,5.15625 h 2.04688 L 630.0625,0 h -4.60938 l -1.76562,-7.203125 q -0.48438,-1.9375 -1.48438,-2.84375 -0.98437,-0.921875 -2.70312,-0.921875 h -3.04688 v 8.28125 h 2.375 V 0 h -7.6875 v -2.6875 h 2.25 v -18.296875 h -2.25 z m 5.3125,2.703125 v 7.453125 H 621 q 0.89062,0 1.625,-0.234375 0.75,-0.234375 1.28125,-0.703125 0.54687,-0.46875 0.84375,-1.15625 0.3125,-0.703125 0.3125,-1.625 0,-1.765625 -1.0625,-2.75 -1.0625,-0.984375 -3.375,-0.984375 z"
           stroke-width="0"
           stroke-linejoin="miter"
           stroke-miterlimit="2"
           fill="#0f1c2f"
           stroke="#0f1c2f"
           transform="matrix(0.75,0,0,0.75,120.95451,429.06174)" />
        <path
           id="path263442"
           style="font-style:normal;font-weight:400;font-size:32px;line-height:1;font-family:Arvo;font-variant-ligatures:none;text-align:center;text-anchor:middle"
           d="m 633.95312,-23.6875 h 16.96875 v 6.703125 h -3.20312 v -4 h -8.45313 v 7.578125 h 7.10938 v 2.6875 h -7.10938 v 8.03125 h 8.45313 v -4 h 3.20312 V 0 h -16.96875 v -2.6875 h 2.25 v -18.296875 h -2.25 z"
           stroke-width="0"
           stroke-linejoin="miter"
           stroke-miterlimit="2"
           fill="#0f1c2f"
           stroke="#0f1c2f"
           transform="matrix(0.75,0,0,0.75,120.95451,429.06174)" />
        <path
           id="path263444"
           style="font-style:normal;font-weight:400;font-size:32px;line-height:1;font-family:Arvo;font-variant-ligatures:none;text-align:center;text-anchor:middle"
           d="m 654.07812,-23.6875 h 7.5625 v 2.703125 h -2.25 V -2.6875 h 2.25 V 0 h -7.5625 v -2.6875 h 2.25 v -18.296875 h -2.25 z"
           stroke-width="0"
           stroke-linejoin="miter"
           stroke-miterlimit="2"
           fill="#0f1c2f"
           stroke="#0f1c2f"
           transform="matrix(0.75,0,0,0.75,120.95451,429.06174)" />
        <path
           id="path263446"
           style="font-style:normal;font-weight:400;font-size:32px;line-height:1;font-family:Arvo;font-variant-ligatures:none;text-align:center;text-anchor:middle"
           d="m 666.14062,-2.6875 h 2.25 v -18.015625 h -2.25 V -23.6875 h 7.5 l 7.51563,20.453125 7.60937,-20.453125 h 7.10938 v 2.984375 h -2.23438 V -2.6875 H 695.875 V 0 h -7.6875 v -2.6875 h 2.53125 V -20.875 L 682.4375,0 h -2.65625 l -8.39063,-20.921875 V -2.6875 h 2.4375 V 0 h -7.6875 z"
           stroke-width="0"
           stroke-linejoin="miter"
           stroke-miterlimit="2"
           fill="#0f1c2f"
           stroke="#0f1c2f"
           transform="matrix(0.75,0,0,0.75,120.95451,429.06174)" />
      </g>
      <g
         id="title"
         style="font-style:normal;font-weight:normal;font-size:72px;line-height:1;font-family:'Brandmark Sans 32 Color';font-variant-ligatures:normal;text-align:center;text-anchor:middle"
         transform="translate(-44.413666,-45.759535)">
        <g
           id="path263449"
           aria-label="R"
           transform="matrix(0.83,0,0,0.83,-41.923115,375.25073)">
          <path
             class="c1"
             d="m 77.1404,71.91547 h 25.92212 c 9.79297,0 15.84155,6.40854 15.84155,15.84137 0,7.12863 -3.38428,12.31308 -8.92896,14.54526 l 9.64893,20.01773 h -11.521 L 99.10231,103.59821 H 87.94142 v 18.72162 H 77.1404 Z m 24.48217,22.32193 c 3.88818,0 6.48047,-2.44821 6.48047,-6.48056 0,-3.88834 -2.44824,-6.48056 -6.48047,-6.48056 H 87.94142 V 94.2374 Z"
             transform="translate(121.72991,-122.31547)"
             stroke-width="0"
             stroke-linejoin="miter"
             stroke-miterlimit="2"
             fill="#0f1c2f"
             stroke="#0f1c2f"
             id="path1" />
        </g>
        <g
           id="path263451"
           aria-label="E"
           transform="matrix(0.83,0,0,0.83,-41.923115,375.25073)">
          <path
             class="c1"
             d="m 118.65199,71.91547 v 9.36081 H 89.12941 v 10.80093 h 29.52258 v 9.36081 H 89.12941 v 10.80093 h 29.52258 v 10.08087 H 78.32851 V 71.91547 Z"
             transform="translate(165.6858,-122.31547)"
             stroke-width="0"
             stroke-linejoin="miter"
             stroke-miterlimit="2"
             fill="#0f1c2f"
             stroke="#0f1c2f"
             id="path2" />
        </g>
        <g
           id="path263453"
           aria-label="^V"
           transform="matrix(0.83,0,0,0.83,-41.923115,375.25073)">
          <path
             class="c3"
             d="m 80.52492,71.91537 18.00146,50.40442 H 94.71046 L 76.709,71.91537 Z"
             transform="translate(210.05531,-122.31537)"
             stroke-width="0"
             stroke-linejoin="miter"
             stroke-miterlimit="2"
             fill="#160042"
             stroke="#160042"
             id="path3" />
          <polygon
             class="c1"
             points="116.52834,71.91537 120.34474,71.91537 102.34279,122.31979 98.52638,122.31979 "
             transform="translate(210.05531,-122.31537)"
             stroke-width="0"
             stroke-linejoin="miter"
             stroke-miterlimit="2"
             fill="#0f1c2f"
             stroke="#0f1c2f"
             id="polygon3" />
        </g>
        <g
           id="path263455"
           aria-label="^e"
           transform="matrix(0.83,0,0,0.83,-41.923115,375.25073)">
          <path
             class="c3"
             d="m 78.29225,102.51808 c 0,-13.39307 7.56067,-20.52173 20.30579,-20.52173 12.74512,0 20.30579,7.12866 20.30579,20.52173 H 81.89259 c 0,11.30493 5.18445,16.92151 16.70544,16.92151 9.79285,0 15.26526,-3.96033 16.48938,-12.6731 h 3.60034 c -1.51208,10.65686 -8.78467,16.27332 -20.08972,16.27332 -13.17712,0 -20.30578,-7.70459 -20.30578,-20.52173 z m 36.86719,-3.24023 c -1.00806,-9.43286 -6.40845,-13.68115 -16.5614,-13.68115 -10.15283,0 -15.55334,4.24829 -16.5614,13.68115 z"
             transform="translate(247.28456,-122.31635)"
             stroke-width="0"
             stroke-linejoin="miter"
             stroke-miterlimit="2"
             fill="#160042"
             stroke="#160042"
             id="path4" />
        </g>
        <g
           id="path263457"
           aria-label="^n"
           transform="matrix(0.83,0,0,0.83,-41.923115,375.25073)">
          <path
             class="c3"
             d="m 98.92189,85.23659 c -10.3689,0 -14.47314,4.46436 -14.47314,15.48132 v 21.60193 H 80.8484 V 82.71632 h 3.60034 v 6.62463 c 2.44824,-4.82434 7.05664,-7.3446 14.47314,-7.3446 11.66504,0 17.35352,4.68042 17.35352,18.72156 v 21.60193 h -3.60034 v -21.60193 c 0,-10.58484 -3.88818,-15.48132 -13.75317,-15.48132 z"
             transform="translate(287.90029,-122.31635)"
             stroke-width="0"
             stroke-linejoin="miter"
             stroke-miterlimit="2"
             fill="#160042"
             stroke="#160042"
             id="path5" />
        </g>
        <g
           id="path263459"
           aria-label="^t"
           transform="matrix(0.83,0,0,0.83,-41.923115,375.25073)">
          <path
             class="c3"
             d="M 89.9214,112.09499 V 85.95668 h -6.62451 v -3.24036 h 6.62451 v -10.8009 h 3.6001 v 10.8009 h 20.30566 v 3.24036 H 93.5215 v 26.13831 c 0,6.33643 2.95215,6.98462 6.55273,6.98462 h 13.75293 v 3.24023 H 99.93019 c -6.40869,0 -10.00879,-2.01624 -10.00879,-10.22485 z"
             transform="translate(322.43617,-122.31542)"
             stroke-width="0"
             stroke-linejoin="miter"
             stroke-miterlimit="2"
             fill="#160042"
             stroke="#160042"
             id="path6" />
        </g>
        <g
           id="path263461"
           aria-label="^u"
           transform="matrix(0.83,0,0,0.83,-41.923115,375.25073)">
          <path
             class="c3"
             d="M 80.84865,104.31825 V 82.71632 h 3.6001 v 21.60193 c 0,10.58484 3.88818,15.48132 13.75293,15.48132 10.36914,0 14.47363,-4.46436 14.47363,-15.48132 V 82.71632 h 3.6001 v 39.60352 h -3.6001 v -6.62463 c -2.44824,4.82446 -7.05664,7.3446 -14.47363,7.3446 -11.66456,0 -17.35303,-4.68042 -17.35303,-18.72156 z"
             transform="translate(357.65004,-122.31632)"
             stroke-width="0"
             stroke-linejoin="miter"
             stroke-miterlimit="2"
             fill="#160042"
             stroke="#160042"
             id="path7" />
        </g>
        <g
           id="path263463"
           aria-label="^r"
           transform="matrix(0.83,0,0,0.83,-41.923115,375.25073)">
          <path
             class="c3"
             d="m 86.64479,82.71632 h 3.60034 v 7.12866 c 2.88013,-4.75244 7.84863,-7.12866 15.04932,-7.12866 h 5.18433 v 3.24036 h -5.18433 c -10.3689,0 -15.04932,5.83252 -15.04932,18.93762 v 17.42554 h -3.60034 z"
             transform="translate(391.2289,-122.31632)"
             stroke-width="0"
             stroke-linejoin="miter"
             stroke-miterlimit="2"
             fill="#160042"
             stroke="#160042"
             id="path8" />
        </g>
        <g
           id="path263465"
           aria-label="^e"
           transform="matrix(0.83,0,0,0.83,-41.923115,375.25073)">
          <path
             class="c3"
             d="m 78.29225,102.51808 c 0,-13.39307 7.56067,-20.52173 20.30579,-20.52173 12.74512,0 20.30579,7.12866 20.30579,20.52173 H 81.89259 c 0,11.30493 5.18445,16.92151 16.70544,16.92151 9.79285,0 15.26526,-3.96033 16.48938,-12.6731 h 3.60034 c -1.51208,10.65686 -8.78467,16.27332 -20.08972,16.27332 -13.17712,0 -20.30578,-7.70459 -20.30578,-20.52173 z m 36.86719,-3.24023 c -1.00806,-9.43286 -6.40845,-13.68115 -16.5614,-13.68115 -10.15283,0 -15.55334,4.24829 -16.5614,13.68115 z"
             transform="translate(422.50331,-122.31635)"
             stroke-width="0"
             stroke-linejoin="miter"
             stroke-miterlimit="2"
             fill="#160042"
             stroke="#160042"
             id="path9" />
        </g>
        <g
           id="path263467"
           aria-label="I"
           transform="matrix(0.83,0,0,0.83,-41.923115,375.25073)">
          <path
             class="c1"
             d="m 103.92531,71.91547 v 50.40436 H 93.12453 V 71.91547 Z"
             transform="translate(452.10853,-122.31547)"
             stroke-width="0"
             stroke-linejoin="miter"
             stroke-miterlimit="2"
             fill="#0f1c2f"
             stroke="#0f1c2f"
             id="path10" />
        </g>
        <g
           id="path263469"
           aria-label="n"
           transform="matrix(0.83,0,0,0.83,-41.923115,375.25073)">
          <path
             class="c1"
             d="m 98.56227,91.71719 c -6.40845,0 -10.8728,3.16827 -10.8728,9.00079 v 21.60181 H 77.60841 v -39.6034 h 10.08105 v 4.46436 c 2.37622,-3.38428 6.40845,-5.18445 13.03296,-5.18445 10.94507,0 18.7937,7.05664 18.7937,18.72168 v 21.60181 h -10.08081 v -21.60181 c 1e-5,-5.5445 -4.24828,-9.00079 -10.87304,-9.00079 z"
             transform="translate(482.39028,-122.3163)"
             stroke-width="0"
             stroke-linejoin="miter"
             stroke-miterlimit="2"
             fill="#0f1c2f"
             stroke="#0f1c2f"
             id="path11" />
        </g>
        <g
           id="path263471"
           aria-label="s"
           transform="matrix(0.83,0,0,0.83,-41.923115,375.25073)">
          <path
             class="c1"
             d="m 78.32863,108.85464 h 10.58496 c 0.64795,3.88837 4.32031,5.61652 10.00879,5.61652 5.32861,0 8.92871,-0.79211 8.92871,-3.52832 0,-7.05664 -27.65039,-0.14404 -27.65039,-16.92145 0,-7.70465 7.77686,-11.95306 17.49756,-11.95306 11.01709,0 18.57764,5.54449 19.87402,14.18524 h -10.36914 c -0.86426,-3.96033 -3.45605,-5.7605 -9.28857,-5.7605 -4.24854,0 -7.34473,1.72815 -7.34473,3.96033 0,6.9126 28.22607,0.36005 28.22607,16.48944 0,7.99268 -9.07227,12.09705 -18.57715,12.09705 -12.67333,-1e-5 -20.88183,-4.68043 -21.89013,-14.18525 z"
             transform="translate(525.82631,-122.31633)"
             stroke-width="0"
             stroke-linejoin="miter"
             stroke-miterlimit="2"
             fill="#0f1c2f"
             stroke="#0f1c2f"
             id="path12" />
        </g>
        <g
           id="path263473"
           aria-label="i"
           transform="matrix(0.83,0,0,0.83,-41.923115,375.25073)">
          <path
             class="c1"
             d="m 103.60133,82.71639 v 39.60339 H 93.52052 V 82.71639 Z"
             transform="translate(554.22817,-122.31549)"
             stroke-width="0"
             stroke-linejoin="miter"
             stroke-miterlimit="2"
             fill="#0f1c2f"
             stroke="#0f1c2f"
             id="path13" />
          <rect
             x="93.520523"
             y="71.915489"
             class="c3"
             width="10.08081"
             height="6.4805298"
             transform="translate(554.22817,-122.31549)"
             stroke-width="0"
             stroke-linejoin="miter"
             stroke-miterlimit="2"
             fill="#160042"
             stroke="#160042"
             id="rect13" />
        </g>
        <g
           id="path263475"
           aria-label="g"
           transform="matrix(0.83,0,0,0.83,-41.923115,375.25073)">
          <path
             class="c1"
             d="m 78.18471,125.77608 h 10.87292 c 2.3042,4.32044 5.7605,5.83253 9.57678,5.83253 8.20874,0 12.02502,-4.17634 12.02502,-10.00886 v -3.96033 c -2.37622,3.52826 -6.48047,5.40045 -13.53711,5.40045 -14.40125,0 -20.73779,-7.70465 -20.73779,-20.52179 0,-13.39313 6.84058,-20.52179 20.73779,-20.52179 7.12866,0 11.23291,1.87219 13.53711,5.32849 v -4.6084 h 10.08093 V 124.264 c 0,9.36079 -9.43286,17.06544 -22.10596,17.06544 -9.57677,0 -18.28954,-4.6084 -20.44969,-15.55336 z m 20.37781,-12.45703 c 7.63257,0 12.09692,-3.74432 12.09692,-10.80096 0,-6.76855 -4.24829,-10.8009 -12.09692,-10.8009 -7.63281,0 -12.09717,3.74432 -12.09717,10.8009 0,6.76862 4.24841,10.80096 12.09717,10.80096 z"
             transform="translate(585.00478,-122.31629)"
             stroke-width="0"
             stroke-linejoin="miter"
             stroke-miterlimit="2"
             fill="#0f1c2f"
             stroke="#0f1c2f"
             id="path14" />
        </g>
        <g
           id="path263477"
           aria-label="h"
           transform="matrix(0.83,0,0,0.83,-41.923115,375.25073)">
          <path
             class="c1"
             d="m 98.56227,91.71719 c -6.40869,0 -10.87305,3.16827 -10.87305,9.00079 v 21.60181 H 77.60841 v -50.4043 h 10.08081 v 15.26526 c 2.37622,-3.38428 6.40857,-5.18445 13.0332,-5.18445 10.94495,0 18.79358,7.05664 18.79358,18.72168 v 21.60181 h -10.08093 v -21.60181 c 0,-5.5445 -4.24829,-9.00079 -10.8728,-9.00079 z"
             transform="translate(632.01528,-122.31549)"
             stroke-width="0"
             stroke-linejoin="miter"
             stroke-miterlimit="2"
             fill="#0f1c2f"
             stroke="#0f1c2f"
             id="path15" />
        </g>
        <g
           id="path263479"
           aria-label="t"
           transform="matrix(0.83,0,0,0.83,-41.923115,375.25073)">
          <path
             class="c1"
             d="M 88.48097,108.27859 V 91.35714 h -5.18408 v -8.64075 h 5.18408 v -10.8009 h 10.08105 v 10.8009 h 15.26514 v 8.64075 H 98.56203 v 16.63342 c 0,3.88837 2.37598,4.96844 5.1123,4.96844 h 10.15283 v 9.36078 H 101.4424 c -6.40869,1e-5 -12.96143,-2.80822 -12.96143,-14.04119 z"
             transform="translate(668.93617,-122.31549)"
             stroke-width="0"
             stroke-linejoin="miter"
             stroke-miterlimit="2"
             fill="#0f1c2f"
             stroke="#0f1c2f"
             id="path16" />
        </g>
        <g
           id="path263481"
           aria-label="s"
           transform="matrix(0.83,0,0,0.83,-41.923115,375.25073)">
          <path
             class="c1"
             d="m 78.32863,108.85464 h 10.58496 c 0.64795,3.88837 4.32031,5.61652 10.00879,5.61652 5.32861,0 8.92871,-0.79211 8.92871,-3.52832 0,-7.05664 -27.65039,-0.14404 -27.65039,-16.92145 0,-7.70465 7.77686,-11.95306 17.49756,-11.95306 11.01709,0 18.57764,5.54449 19.87402,14.18524 h -10.36914 c -0.86426,-3.96033 -3.45605,-5.7605 -9.28857,-5.7605 -4.24854,0 -7.34473,1.72815 -7.34473,3.96033 0,6.9126 28.22607,0.36005 28.22607,16.48944 0,7.99268 -9.07227,12.09705 -18.57715,12.09705 -12.67333,-1e-5 -20.88183,-4.68043 -21.89013,-14.18525 z"
             transform="translate(706.24818,-122.31633)"
             stroke-width="0"
             stroke-linejoin="miter"
             stroke-miterlimit="2"
             fill="#0f1c2f"
             stroke="#0f1c2f"
             id="path17" />
        </g>
      </g>
      <g
         id="db-icon"
         transform="matrix(1.6706308,0,0,1.5559177,149.25091,-2.3367221)">
        <path
           style="fill:#160042;fill-opacity:1;stroke-width:0.169978"
           d="m 761.41462,369.42449 c -13.95451,-0.8339 -25.99485,-4.0323 -33.23708,-8.82912 -0.89904,-0.59547 -2.28984,-1.74808 -3.15369,-2.61358 -1.85531,-1.85886 -2.84981,-3.64637 -3.12575,-5.61824 -0.21435,-1.53172 -0.21324,-10.99944 10e-4,-12.65402 1.57943,-12.17034 32.75486,-20.35853 61.7821,-16.22699 16.11393,2.29355 27.69181,7.89619 30.21584,14.62172 0.35887,0.95626 0.37816,1.28666 0.43126,7.38683 0.0628,7.21186 -0.011,7.86996 -1.10354,9.84179 -0.85481,1.54279 -3.44777,4.10721 -5.49173,5.43129 -9.70325,6.28575 -28.19578,9.74334 -46.3189,8.66032 z"
           id="path56"
           transform="matrix(0.59682266,0,0,0.64082458,-146.5583,-26.935931)" />
        <path
           style="fill:#160042;fill-opacity:1;stroke-width:0.169978"
           d="m 761.5846,438.68953 c -16.72674,-1.06382 -30.44649,-5.32984 -36.43937,-11.33045 -1.53062,-1.53259 -2.45983,-2.90847 -2.95119,-4.36984 -0.36015,-1.07111 -0.37332,-1.38154 -0.4311,-10.16393 l -0.0596,-9.05908 1.49807,1.13107 c 13.28902,10.03349 43.03238,13.90896 67.70433,8.82166 9.43305,-1.94507 17.16913,-5.07503 22.25396,-9.00377 l 1.21928,-0.94207 -0.0507,9.22561 c -0.0503,9.15558 -0.0536,9.23289 -0.43869,10.18527 -3.07343,7.60097 -16.27513,13.27179 -35.39225,15.20282 -2.51027,0.25356 -14.35284,0.46553 -16.91277,0.30271 z"
           id="path55"
           transform="matrix(0.59682266,0,0,0.64082458,-146.5583,-26.935931)" />
        <path
           style="fill:#160042;fill-opacity:1;stroke-width:0.169978"
           d="m 761.5846,405.88856 c -7.70373,-0.56987 -12.58745,-1.28322 -18.08339,-2.64136 -6.33,-1.56425 -11.48829,-3.66311 -15.3515,-6.24639 -2.98624,-1.99686 -4.96859,-4.21515 -5.88267,-6.58281 l -0.45143,-1.16931 -0.0556,-10.94861 c -0.0549,-10.79612 -0.0511,-10.94526 0.27288,-10.70859 0.18069,0.13201 0.77033,0.5759 1.31031,0.98641 3.52607,2.68066 9.38718,5.38379 15.51257,7.15436 5.64203,1.63086 11.81513,2.71851 19.4993,3.43564 3.7045,0.34572 16.50994,0.29096 20.39731,-0.0872 15.37681,-1.49596 27.20901,-5.23442 34.63293,-10.9425 l 0.97737,-0.75147 v 10.44035 c 0,6.39058 -0.0673,10.79522 -0.1735,11.3552 -1.49941,7.9064 -15.46726,14.35425 -35.52179,16.39762 -2.4799,0.25268 -14.82444,0.47575 -17.08275,0.30869 z"
           id="path54"
           transform="matrix(0.59682266,0,0,0.64082458,-146.5583,-26.935931)" />
      </g>
    </g>
  </g>
</svg>
