<?xml version="1.0" encoding="UTF-8" standalone="no"?>
<!-- Created with Inkscape (http://www.inkscape.org/) -->

<svg
   width="256"
   height="256"
   viewBox="0 0 67.733332 67.733333"
   version="1.1"
   id="svg1"
   inkscape:export-filename="webclip.png"
   inkscape:export-xdpi="96"
   inkscape:export-ydpi="96"
   inkscape:version="1.4 (86a8ad7, 2024-10-11)"
   sodipodi:docname="Webclip.svg"
   xmlns:inkscape="http://www.inkscape.org/namespaces/inkscape"
   xmlns:sodipodi="http://sodipodi.sourceforge.net/DTD/sodipodi-0.dtd"
   xmlns="http://www.w3.org/2000/svg"
   xmlns:svg="http://www.w3.org/2000/svg">
  <sodipodi:namedview
     id="namedview1"
     pagecolor="#ffffff"
     bordercolor="#000000"
     borderopacity="0.25"
     inkscape:showpageshadow="2"
     inkscape:pageopacity="0.0"
     inkscape:pagecheckerboard="0"
     inkscape:deskcolor="#d1d1d1"
     inkscape:document-units="mm"
     inkscape:export-bgcolor="#ffffffff"
     inkscape:zoom="1.0167041"
     inkscape:cx="-201.14014"
     inkscape:cy="102.7831"
     inkscape:window-width="1920"
     inkscape:window-height="1009"
     inkscape:window-x="-8"
     inkscape:window-y="-8"
     inkscape:window-maximized="1"
     inkscape:current-layer="g1" />
  <defs
     id="defs1" />
  <g
     inkscape:groupmode="layer"
     id="layer2"
     inkscape:label="Layer 2">
    <g
       id="db-icon-0"
       transform="matrix(0.4666208,0,0,0.4345805,-111.51139,-73.885201)">
      <path
         style="fill:#160042;fill-opacity:1;stroke-width:0.169978"
         d="m 761.41462,369.42449 c -13.95451,-0.8339 -25.99485,-4.0323 -33.23708,-8.82912 -0.89904,-0.59547 -2.28984,-1.74808 -3.15369,-2.61358 -1.85531,-1.85886 -2.84981,-3.64637 -3.12575,-5.61824 -0.21435,-1.53172 -0.21324,-10.99944 10e-4,-12.65402 1.57943,-12.17034 32.75486,-20.35853 61.7821,-16.22699 16.11393,2.29355 27.69181,7.89619 30.21584,14.62172 0.35887,0.95626 0.37816,1.28666 0.43126,7.38683 0.0628,7.21186 -0.011,7.86996 -1.10354,9.84179 -0.85481,1.54279 -3.44777,4.10721 -5.49173,5.43129 -9.70325,6.28575 -28.19578,9.74334 -46.3189,8.66032 z"
         id="path56-9"
         transform="matrix(0.59682266,0,0,0.64082458,-146.5583,-26.935931)" />
      <path
         style="fill:#160042;fill-opacity:1;stroke-width:0.169978"
         d="m 761.5846,438.68953 c -16.72674,-1.06382 -30.44649,-5.32984 -36.43937,-11.33045 -1.53062,-1.53259 -2.45983,-2.90847 -2.95119,-4.36984 -0.36015,-1.07111 -0.37332,-1.38154 -0.4311,-10.16393 l -0.0596,-9.05908 1.49807,1.13107 c 13.28902,10.03349 43.03238,13.90896 67.70433,8.82166 9.43305,-1.94507 17.16913,-5.07503 22.25396,-9.00377 l 1.21928,-0.94207 -0.0507,9.22561 c -0.0503,9.15558 -0.0536,9.23289 -0.43869,10.18527 -3.07343,7.60097 -16.27513,13.27179 -35.39225,15.20282 -2.51027,0.25356 -14.35284,0.46553 -16.91277,0.30271 z"
         id="path55-0"
         transform="matrix(0.59682266,0,0,0.64082458,-146.5583,-26.935931)" />
      <path
         style="fill:#160042;fill-opacity:1;stroke-width:0.169978"
         d="m 761.5846,405.88856 c -7.70373,-0.56987 -12.58745,-1.28322 -18.08339,-2.64136 -6.33,-1.56425 -11.48829,-3.66311 -15.3515,-6.24639 -2.98624,-1.99686 -4.96859,-4.21515 -5.88267,-6.58281 l -0.45143,-1.16931 -0.0556,-10.94861 c -0.0549,-10.79612 -0.0511,-10.94526 0.27288,-10.70859 0.18069,0.13201 0.77033,0.5759 1.31031,0.98641 3.52607,2.68066 9.38718,5.38379 15.51257,7.15436 5.64203,1.63086 11.81513,2.71851 19.4993,3.43564 3.7045,0.34572 16.50994,0.29096 20.39731,-0.0872 15.37681,-1.49596 27.20901,-5.23442 34.63293,-10.9425 l 0.97737,-0.75147 v 10.44035 c 0,6.39058 -0.0673,10.79522 -0.1735,11.3552 -1.49941,7.9064 -15.46726,14.35425 -35.52179,16.39762 -2.4799,0.25268 -14.82444,0.47575 -17.08275,0.30869 z"
         id="path54-0"
         transform="matrix(0.59682266,0,0,0.64082458,-146.5583,-26.935931)" />
    </g>
    <g
       id="g1"
       transform="matrix(1.9780857,0,0,1.9780857,-115.8355,-290.64643)">
      <g
         id="path263449-4"
         aria-label="R"
         transform="matrix(0.21960416,0,0,0.21960416,25.156139,168.51775)"
         style="font-style:normal;font-weight:normal;font-size:72px;line-height:1;font-family:'Brandmark Sans 32 Color';font-variant-ligatures:normal;text-align:center;text-anchor:middle">
        <path
           class="c1"
           d="m 157.43339,-0.40660551 h 25.92212 c 9.79297,0 15.84155,6.40854001 15.84155,15.84136951 0,7.12863 -3.38428,12.31308 -8.92896,14.54526 l 9.64893,20.01773 h -11.521 l -9.00073,-18.72162 h -11.16089 v 18.72162 H 157.43339 Z M 181.91556,21.915324 c 3.88818,0 6.48047,-2.44821 6.48047,-6.48056 0,-3.88834 -2.44824,-6.4805595 -6.48047,-6.4805595 H 168.23441 V 21.915324 Z"
           stroke-width="0"
           stroke-linejoin="miter"
           stroke-miterlimit="2"
           fill="#0f1c2f"
           stroke="#0f1c2f"
           id="path1-9" />
      </g>
      <g
         id="path263467-8"
         aria-label="I"
         transform="matrix(0.21960416,0,0,0.21960416,-30.153871,179.59263)"
         style="font-style:normal;font-weight:normal;font-size:72px;line-height:1;font-family:'Brandmark Sans 32 Color';font-variant-ligatures:normal;text-align:center;text-anchor:middle">
        <path
           class="c1"
           d="M 554.81567,-50.4 V 0.00436 H 544.01489 V -50.4 Z"
           stroke-width="0"
           stroke-linejoin="miter"
           stroke-miterlimit="2"
           fill="#0f1c2f"
           stroke="#0f1c2f"
           id="path10-9" />
      </g>
      <g
         id="path263453-6"
         aria-label="^V"
         transform="matrix(0.21960416,0,0,0.21960416,16.151097,179.59262)"
         style="font-style:normal;font-weight:normal;font-size:72px;line-height:1;font-family:'Brandmark Sans 32 Color';font-variant-ligatures:normal;text-align:center;text-anchor:middle">
        <path
           class="c3"
           d="m 80.52492,71.91537 18.00146,50.40442 H 94.71046 L 76.709,71.91537 Z"
           stroke-width="0"
           stroke-linejoin="miter"
           stroke-miterlimit="2"
           fill="#160042"
           stroke="#160042"
           id="path3-0"
           transform="translate(210.05531,-122.31537)" />
        <polygon
           class="c1"
           points="116.52834,71.91537 120.34474,71.91537 102.34279,122.31979 98.52638,122.31979 "
           transform="translate(210.05531,-122.31537)"
           stroke-width="0"
           stroke-linejoin="miter"
           stroke-miterlimit="2"
           fill="#0f1c2f"
           stroke="#0f1c2f"
           id="polygon3-6" />
      </g>
      <g
         id="path263451"
         aria-label="E"
         transform="matrix(0.11181016,0,0,0.11181016,37.06237,163.08493)"
         style="font-style:normal;font-weight:normal;font-size:72px;line-height:1;font-family:'Brandmark Sans 32 Color';font-variant-ligatures:normal;text-align:center;text-anchor:middle">
        <path
           class="c1"
           d="m 370.78583,47.791076 v 18.38601 h -57.98669 v 21.21462 h 57.98669 v 18.386004 h -57.98669 v 21.21462 h 57.98669 v 19.80031 H 291.58459 V 47.791076 Z"
           stroke-width="0"
           stroke-linejoin="miter"
           stroke-miterlimit="2"
           fill="#0f1c2f"
           stroke="#0f1c2f"
           id="path2"
           sodipodi:nodetypes="ccccccccccccc" />
      </g>
    </g>
  </g>
</svg>
